#!OML:ASF X:\für Bonn\!DataBase\2005_08_11_Bastian_Final\c3d\Bastian.ASF
:FULLY-SPECIFIED
:DEGREES
263
root 1.35269 4.44685 25.0722 -780.716 -185.757 -726.493
lowerback 71.7305 -5.97693 -18.3164
upperback 22.4644 -1.23656 -2.76909
thorax 5.88512 5.72805 5.24638
lowerneck -16.6315 1.34834 -0.530941
upperneck -1.86858 2.66844 -5.45356
head 2.36166 1.37857 -1.49195
rclavicle -1.11319e-014 3.02153e-014
rhumerus -18.1346 11.5752 -86.0264
rradius 24.3654
rwrist -34.2629
rhand -35.0651 -12.8092
rfingers 7.12502
rthumb -8.20758 -42.6298
lclavicle -1.11319e-014 3.02153e-014
lhumerus 26.7027 -22.32 8.16177
lradius 61.9834
lwrist 16.9609
lhand -5.82707 -17.8841
lfingers 7.12502
lthumb 19.9986 11.1068
rfemur -71.2371 -7.16737 35.3826
rtibia 113.368
rfoot -2.61927 -6.41631
rtoes 7.99782
lfemur -57.0015 38.9779 0.0465385
ltibia 142.709
lfoot -16.8486 -27.8239
ltoes -17.884
264
root 1.3725 4.39486 25.0786 -781.029 -185.503 -726.564
lowerback 71.5619 -5.87415 -18.4572
upperback 22.4063 -1.26024 -2.90643
thorax 5.82779 5.72451 5.15169
lowerneck -16.5156 1.30254 -0.489891
upperneck -1.79137 2.58599 -5.39678
head 2.36452 1.33367 -1.48707
rclavicle -6.2816e-014 9.30312e-014
rhumerus -18.7546 11.576 -86.4248
rradius 24.735
rwrist -34.4337
rhand -35.1343 -12.9562
rfingers 7.12502
rthumb -8.27435 -42.7742
lclavicle -6.2816e-014 9.30312e-014
lhumerus 26.4266 -22.3214 8.47275
lradius 61.8178
lwrist 16.9364
lhand -5.77808 -17.9344
lfingers 7.12502
lthumb 20.0457 11.0515
rfemur -70.785 -6.9954 35.0472
rtibia 111.712
rfoot -1.90823 -6.32623
rtoes 7.41007
lfemur -57.21 39.219 -0.0282255
ltibia 142.832
lfoot -16.5645 -27.965
ltoes -18.2319
265
root 1.39053 4.34063 25.0828 -781.351 -185.272 -726.633
lowerback 71.4244 -5.7715 -18.585
upperback 22.3422 -1.2742 -3.05151
thorax 5.76291 5.7319 5.03791
lowerneck -16.4056 1.26102 -0.432351
upperneck -1.74768 2.5058 -5.3157
head 2.3567 1.29232 -1.47672
rclavicle 5.1684e-014 3.33958e-014
rhumerus -19.3782 11.5308 -86.8331
rradius 25.1222
rwrist -34.6186
rhand -35.2201 -13.0978
rfingers 7.12502
rthumb -8.35721 -42.9124
lclavicle 5.1684e-014 3.33958e-014
lhumerus 26.1758 -22.3136 8.74894
lradius 61.6435
lwrist 16.931
lhand -5.70137 -18.0046
lfingers 7.12502
lthumb 20.1194 10.9737
rfemur -70.2889 -6.81346 34.7178
rtibia 110.067
rfoot -1.12973 -6.24001
rtoes 6.79232
lfemur -57.3932 39.536 -0.0404081
ltibia 142.972
lfoot -16.2946 -28.1529
ltoes -18.5331
266
root 1.40739 4.28677 25.0868 -781.67 -185.022 -726.71
lowerback 71.3461 -5.6431 -18.741
upperback 22.2438 -1.29509 -3.17136
thorax 5.66694 5.72953 4.95811
lowerneck -16.3284 1.21877 -0.371705
upperneck -1.69068 2.43007 -5.29518
head 2.36096 1.25119 -1.48662
rclavicle 1.59028e-015 -5.32743e-014
rhumerus -20.0372 11.5503 -87.2095
rradius 25.573
rwrist -34.8199
rhand -35.2518 -13.2772
rfingers 7.12502
rthumb -8.38775 -43.0906
lclavicle 1.59028e-015 -5.32743e-014
lhumerus 25.8654 -22.3048 9.09364
lradius 61.4978
lwrist 16.9416
lhand -5.58637 -18.0797
lfingers 7.12502
lthumb 20.2299 10.8869
rfemur -69.7716 -6.6661 34.3725
rtibia 108.434
rfoot -0.313221 -6.14322
rtoes 6.03622
lfemur -57.5893 39.8287 -0.128855
ltibia 143.115
lfoot -16.0194 -28.273
ltoes -18.8643
267
root 1.42388 4.23232 25.0891 -781.973 -184.752 -726.796
lowerback 71.2714 -5.51931 -18.8969
upperback 22.1334 -1.32751 -3.30536
thorax 5.55751 5.72402 4.86389
lowerneck -16.2681 1.18687 -0.248269
upperneck -1.62149 2.35737 -5.29258
head 2.37407 1.20999 -1.51352
rclavicle 3.65764e-014 -8.74653e-014
rhumerus -20.7162 11.6061 -87.6117
rradius 26.0465
rwrist -35.113
rhand -35.3702 -13.4168
rfingers 7.12502
rthumb -8.50206 -43.2256
lclavicle 3.65764e-014 -8.74653e-014
lhumerus 25.5711 -22.3111 9.41043
lradius 61.3117
lwrist 16.9276
lhand -5.48589 -18.2002
lfingers 7.12502
lthumb 20.3265 10.7561
rfemur -69.2548 -6.52486 34.0092
rtibia 106.832
rfoot 0.528998 -6.03424
rtoes 5.10816
lfemur -57.8121 40.0994 -0.25471
ltibia 143.266
lfoot -15.7152 -28.4162
ltoes -19.1054
